<svg width="20" height="17" viewBox="0 0 20 17" fill="none" xmlns="http://www.w3.org/2000/svg">
<path d="M9.59375 3.66483C9.17805 3.25056 8.95205 2.70036 8.96412 2.132C8.97619 1.56365 9.22537 1.0223 9.65832 0.623831C10.0913 0.225365 10.6736 0.00144665 11.2806 6.98514e-06C11.8877 -0.00143268 12.4712 0.219721 12.9063 0.616128L19.3344 6.73791C19.7607 7.14487 19.9995 7.69219 19.9995 8.26226C19.9995 8.83233 19.7607 9.37965 19.3344 9.78661L13.0365 15.7849C12.8246 15.9961 12.5698 16.1655 12.2871 16.2831C12.0043 16.4008 11.6993 16.4644 11.3899 16.4702C11.0806 16.4759 10.7731 16.4237 10.4856 16.3167C10.198 16.2096 9.93624 16.0499 9.71556 15.8468C9.49488 15.6437 9.31975 15.4013 9.20046 15.1339C9.08117 14.8666 9.02013 14.5796 9.02091 14.2898C9.0217 14.0001 9.08429 13.7134 9.20502 13.4466C9.32576 13.1798 9.50219 12.9383 9.72397 12.7362L12.1787 10.3918L2.30291 10.3476C1.68685 10.3427 1.09808 10.1089 0.666128 9.69752C0.234173 9.28615 -0.00558662 8.73094 -0.00040604 8.15403C0.00477454 7.57712 0.254471 7.02577 0.693752 6.62126C1.13303 6.21675 1.72592 5.99223 2.34197 5.99708L12.0843 6.03976L9.59375 3.66483Z" fill="black"/>
</svg>
